PathFileType	4	(X/Y/Z)	2014001\dynamic\2014001_C1_04.trc
DataRate	CameraRate	NumFrames	NumMarkers	Units	OrigDataRate	OrigDataStartFrame	OrigNumFrames
100.000000	100.000000	4	52	mm	100.000000	497	569
Frame#	Time	L_IAS			L_IPS			R_IPS			R_IAS			L_FTC			L_FLE			L_FME			L_FAX			L_TTC			L_FAL			L_TAM			L_FCC			L_FM1			L_FM2			L_FM5			R_FTC			R_FLE			R_FME			R_FAX			R_TTC			R_FAL			R_TAM			R_FCC			R_FM1			R_FM2			R_FM5			CV7			TV10			SXS			SJN			L_SIA			L_SRS			L_SAA			L_SAE			L_HLE			L_HME			L_UOA			L_RSP			L_UHE			L_HM2			L_HM5			R_SIA			R_SRS			R_SAA			R_SAE			R_HLE			R_HME			R_UOA			R_RSP			R_UHE			R_HM2			R_HM5			
		X1	Y1	Z1	X2	Y2	Z2	X3	Y3	Z3	X4	Y4	Z4	X5	Y5	Z5	X6	Y6	Z6	X7	Y7	Z7	X8	Y8	Z8	X9	Y9	Z9	X10	Y10	Z10	X11	Y11	Z11	X12	Y12	Z12	X13	Y13	Z13	X14	Y14	Z14	X15	Y15	Z15	X16	Y16	Z16	X17	Y17	Z17	X18	Y18	Z18	X19	Y19	Z19	X20	Y20	Z20	X21	Y21	Z21	X22	Y22	Z22	X23	Y23	Z23	X24	Y24	Z24	X25	Y25	Z25	X26	Y26	Z26	X27	Y27	Z27	X28	Y28	Z28	X29	Y29	Z29	X30	Y30	Z30	X31	Y31	Z31	X32	Y32	Z32	X33	Y33	Z33	X34	Y34	Z34	X35	Y35	Z35	X36	Y36	Z36	X37	Y37	Z37	X38	Y38	Z38	X39	Y39	Z39	X40	Y40	Z40	X41	Y41	Z41	X42	Y42	Z42	X43	Y43	Z43	X44	Y44	Z44	X45	Y45	Z45	X46	Y46	Z46	X47	Y47	Z47	X48	Y48	Z48	X49	Y49	Z49	X50	Y50	Z50	X51	Y51	Z51	X52	Y52	Z52	

498	4.97	422.2188110351565	865.901000976563	1263.513061523438	365.1033630371095	918.2326049804692	1081.861938476563	275.5316772460939	921.583862304688	1069.901977539063	180.4793548583985	886.2722167968755	1238.932861328125	474.9029541015627	780.1962280273442	1186.811889648438	410.4247131347659	428.8859863281252	1165.142211914063	293.0665283203126	431.476257324219	1168.692504882813	411.4905090332034	368.0007629394532	1140.618896484375	353.500946044922	349.3786010742189	1191.597045898438	347.0122070312501	60.90283966064456	1064.193603515625	256.0421752929689	74.28391265869143	1079.615112304688	302.1678466796876	22.64940261840821	1015.04296875	276.6644897460939	22.99768829345704	1195.193725585938	334.6498413085939	39.98840713500978	1205.65087890625	378.9754943847657	31.7514057159424	1150.899780273438	127.2570724487305	801.227905273438	1132.09912109375	107.2218856811524	455.8606567382815	1135.885498046875	217.4197845458986	416.8403625488284	1178.572998046875	108.7438125610352	419.6297607421877	1086.114135742188	133.0211181640626	361.8267211914064	1143.916015625	175.8351593017579	215.9624938964845	856.9343872070317	241.6382904052736	182.8870697021485	914.7521362304692	247.6431732177736	211.5551910400392	820.6525878906255	205.3116760253907	61.91148757934573	912.2067260742192	144.4175720214844	70.30809020996097	902.077026367188	125.7383346557618	112.9683456420899	853.0411987304692	305.9050292968751	1382.358520507813	1104.630004882813	327.2131652832032	1147.366943359375	1045.924926757813	319.3573303222657	1157.606323242188	1278.96533203125	309.5520935058595	1318.63427734375	1232.591796875	418.2356567382815	1193.330322265625	1044.724853515625	401.2530212402346	1325.245483398438	1061.802612304688	505.4524841308596	1332.937133789063	1141.571044921875	488.4128723144534	1342.910034179688	1181.89306640625	582.7130126953127	1062.928955078125	1146.558349609375	509.3137207031252	1027.601684570313	1118.846313476563	558.8684082031252	1027.13330078125	1113.640502929688	552.324157714844	838.4606933593755	1255.543090820313	619.620788574219	834.2759399414067	1207.913940429688	562.3433837890627	759.3289184570315	1290.494140625	625.3045043945315	756.336364746094	1208.184326171875	208.8661651611329	1184.992065429688	1034.673706054688	223.7840576171876	1308.92578125	1061.262084960938	119.0061340332032	1301.069213867188	1134.70458984375	129.1670989990235	1306.491333007813	1183.458374023438	59.92665863037112	1006.301818847657	1136.03173828125	138.2830810546876	987.8385620117192	1118.461181640625	92.76391601562503	980.7794799804692	1110.375366210938	73.67197418212893	808.298950195313	1253.51416015625	17.42819595336915	801.1071777343755	1194.1142578125	50.65132141113284	723.0137329101565	1289.470825195313	14.95270061492921	721.4497680664065	1192.605346679688	
499	4.98	422.4864501953127	865.7790527343755	1264.417602539063	365.0910644531251	918.0276489257817	1082.847778320313	275.495086669922	921.3726196289067	1070.942993164063	180.7764739990235	886.4288940429692	1240.272705078125	474.9483032226565	779.9906616210942	1187.527709960938	410.4971618652346	428.8067016601565	1165.418823242188	293.1754455566407	431.3108215332034	1169.15625	411.5542297363284	367.9642028808595	1140.85791015625	353.5750122070314	349.238983154297	1191.889526367188	346.9927368164064	60.89774703979495	1064.169555664063	256.0552062988282	74.223014831543	1079.562622070313	302.0988769531251	22.68087196350098	1015.062866210938	276.6730957031251	23.00117874145509	1195.191772460938	334.6914367675782	39.97716522216798	1205.6220703125	379.0674133300782	31.73640632629396	1150.883911132813	127.0476531982422	801.0458984375005	1134.2880859375	107.0261993408204	455.461120605469	1142.522338867188	217.3521881103517	417.0273742675784	1185.134399414063	108.6672821044922	418.9705505371096	1093.095825195313	133.0196533203126	361.819549560547	1151.262329101563	175.7248992919922	214.0593414306642	865.0993041992192	241.7042388916017	181.6375732421876	923.037719726563	247.3159179687501	208.6151733398439	828.091674804688	203.7886199951173	61.83399963378909	924.5939331054692	143.1889038085938	70.75678253173831	914.3850708007817	124.8182373046876	111.9324798583985	864.0981445312505	305.983123779297	1382.30859375	1105.864013671875	327.4425354003907	1147.401245117188	1046.972778320313	319.3089904785157	1157.411499023438	1280.025390625	309.4217529296876	1318.484741210938	1233.785034179688	418.5903015136721	1193.420654296875	1046.064208984375	401.4859619140627	1325.294067382813	1063.239135742188	505.5143737792971	1333.040283203125	1143.216918945313	488.3547973632815	1342.960327148438	1183.504272460938	583.2295532226565	1063.1728515625	1148.409057617188	509.9686279296877	1027.78125	1120.256469726563	559.5690917968752	1027.345703125	1115.406494140625	552.9109497070315	838.6405639648442	1257.274047851563	620.3577270507815	834.5949707031255	1209.8447265625	562.9763793945315	759.5327148437502	1292.261962890625	626.249450683594	756.6953125000002	1210.166870117188	209.2951507568361	1184.951171875	1035.478881835938	224.0802307128907	1308.820556640625	1062.259399414063	119.158187866211	1300.889526367188	1135.322631835938	129.1244201660157	1306.27685546875	1184.15625	60.17023086547854	1006.116394042969	1135.635009765625	138.6271514892579	987.713500976563	1118.533081054688	93.17706298828128	980.5762329101567	1110.171264648438	73.36341857910159	808.2749023437505	1253.421752929688	17.56657409667969	800.8986816406255	1193.675415039063	50.23684692382815	723.0451660156252	1289.4482421875	15.20882225036622	721.2288818359377	1192.277709960938	
500	4.99	422.7302856445315	865.6588745117192	1265.3095703125	365.0604858398439	917.8186645507817	1083.813842773438	275.4440307617189	921.1572265625005	1071.96728515625	181.0574645996094	886.5959472656255	1241.5888671875	474.9857482910159	779.783081054688	1188.204833984375	410.5493774414065	428.7311706542971	1165.712768554688	293.2647399902345	431.1459655761721	1169.643432617188	411.597106933594	367.9230346679689	1141.121948242188	353.6285400390626	349.0957336425782	1192.199584960938	346.966522216797	60.90413665771487	1064.148803710938	256.0617980957032	74.150993347168	1079.508911132813	302.0304260253907	22.71998596191407	1015.112609863282	276.6801147460939	22.99865913391114	1195.189575195313	334.727508544922	39.96372604370119	1205.59326171875	379.1525878906251	31.72883987426759	1150.869018554688	126.8090362548829	800.8935546875005	1136.440551757813	106.8838272094727	455.1164550781252	1149.169921875	217.3654785156251	417.3067016601565	1191.622924804688	108.5822906494141	418.2891235351565	1100.157592773438	133.0876922607422	361.8821716308595	1158.688842773438	175.4431762695313	211.8193664550782	873.5210571289067	241.6215972900392	180.1565093994141	931.5651855468755	246.7602844238282	205.3509826660157	835.7861328125005	202.222625732422	61.63519668579104	937.3254394531255	141.9157409667969	71.04725646972659	927.0241088867192	123.7709884643555	110.6525192260743	875.5441284179692	306.056365966797	1382.252319335938	1107.073852539063	327.645721435547	1147.432983398438	1047.9921875	319.2527465820314	1157.215454101563	1281.063720703125	309.2895507812501	1318.327758789063	1234.952514648438	418.9122009277346	1193.497314453125	1047.366821289063	401.694274902344	1325.330078125	1064.652221679688	505.5633239746096	1333.123779296875	1144.812744140625	488.2887878417971	1342.992553710938	1185.065185546875	583.706726074219	1063.385375976563	1150.240844726563	510.5745544433596	1027.914794921875	1121.701904296875	560.2195434570315	1027.522583007813	1117.164672851563	553.458679199219	838.8122558593755	1259.039184570313	621.0458984375002	834.8913574218755	1211.802001953125	563.572692871094	759.7388305664065	1294.084228515625	627.1417236328127	757.0328369140627	1212.19580078125	209.6904144287111	1184.915405273438	1036.261840820313	224.3496551513673	1308.715454101563	1063.24169921875	119.2898178100587	1300.70849609375	1135.948974609375	129.0724029541016	1306.063720703125	1184.851684570313	60.41298675537112	1005.927124023438	1135.270385742188	138.958969116211	987.586791992188	1118.607299804688	93.57723236083987	980.3698730468755	1109.9873046875	73.11466217041018	808.2390747070317	1253.354248046875	17.73000717163087	800.6867675781255	1193.286499023438	49.87871932983401	723.083435058594	1289.438354492188	15.48360919952393	721.0054321289065	1191.998291015625	
501	5	422.9476623535159	865.542114257813	1266.192749023438	365.0137634277345	917.6022949218755	1084.763793945313	275.3812255859376	920.9370727539067	1072.977294921875	181.3204040527344	886.780395507813	1242.8818359375	475.0158691406252	779.572387695313	1188.844604492188	410.5792236328127	428.6585998535159	1166.030395507813	293.3306579589845	430.985046386719	1170.160278320313	411.6173400878909	367.8775939941407	1141.415405273438	353.6604919433595	348.9490661621095	1192.530395507813	346.934539794922	60.92480850219729	1064.13330078125	256.0588989257814	74.06977081298831	1079.46044921875	301.9666442871095	22.76632881164551	1015.19677734375	276.6848449707032	22.98854064941407	1195.185913085938	334.7568969726564	39.94602966308595	1205.566284179688	379.2290954589845	31.72703552246095	1150.855102539063	126.5512237548829	800.7719116210942	1138.551879882813	106.7967605590821	454.8335876464846	1155.818359375	217.4575653076173	417.678894042969	1198.043579101563	108.4983673095704	417.5979309082034	1107.279663085938	133.2225036621094	362.0161437988282	1166.19287109375	174.9996795654297	209.2588958740236	882.1943969726567	241.3928375244142	178.4553833007813	940.3252563476567	245.9822692871095	201.7722625732423	843.7373657226567	200.628875732422	61.32315444946292	950.3630371093755	140.6038818359376	71.18654632568362	939.9678344726567	122.6079940795899	109.1391830444337	887.3552246093755	306.1237182617189	1382.18994140625	1108.260498046875	327.8244934082032	1147.460327148438	1048.990600585938	319.1882934570314	1157.020263671875	1282.081909179688	309.1549682617189	1318.165405273438	1236.09521484375	419.2035827636721	1193.562255859375	1048.633544921875	401.877380371094	1325.35595703125	1066.041381835938	505.598571777344	1333.19189453125	1146.358154296875	488.2145996093752	1343.011108398438	1186.575561523438	584.1409912109377	1063.570556640625	1152.047119140625	511.1255493164065	1028.00537109375	1123.183959960938	560.8123779296877	1027.666015625	1118.912231445313	553.9636230468752	838.9782104492192	1260.835693359375	621.6798095703127	835.166381835938	1213.782958984375	564.1292724609377	759.9494628906252	1295.958618164063	627.971130371094	757.349060058594	1214.259887695313	210.052215576172	1184.885131835938	1037.023803710938	224.5921783447267	1308.61083984375	1064.209350585938	119.4005203247071	1300.52490234375	1136.5849609375	129.0113525390626	1305.85107421875	1185.545532226563	60.65433883666995	1005.734802246094	1134.950927734375	139.2774047851563	987.4575805664067	1118.694458007813	93.96332550048831	980.1620483398442	1109.834106445313	72.92440032958987	808.1835327148442	1253.311157226563	17.91288566589356	800.4706420898442	1192.948486328125	49.57458114624026	723.1177368164065	1289.430297851563	15.77008438110352	720.7779541015627	1191.763061523438	
